@startuml

skinparam component {
    FontSize 16
    FontStyle bold
    FontColor white
    BackgroundColor #ffac2f
    ArrowFontColor #333333
    ArrowThickness 2
}
skinparam defaultTextAlignment center
skinparam linetype polyline

package host {

    package Logstash{
        interface TCP
        interface Beats
        interface HTTP
        TCP -- [Logstash]
        Beats -- [Logstash]
        HTTP -- [Logstash]
    }

    [TJobExec\nContainer] -- Docker
    [Internal Sut\nContainer(s)] -- Docker
    [Internal Browser\nContainer] -- Docker
    Docker --> TCP

    [Internal Browser\nSession console] --> HTTP

    [Internal Sut\n In Container(s)] -- [Filebeat]
    [Filebeat] --> Beats

    Docker -- [Dockbeat]
    [Dockbeat] --> Beats




    [Logstash] --> [Elasticsearch]
    [Logstash] --> [RabbitMQ]

}

package ExternalSutHost {
    [External\nFilebeat] --> Beats
    [External\nMetricbeat] --> Beats
}


@enduml